<?xml version="1.0" standalone="no"?>
<!DOCTYPE svg PUBLIC "-//W3C//DTD SVG 1.0//EN" "http://www.w3.org/TR/2001/REC-SVG-20010904/DTD/svg10.dtd">
<svg xmlns="http://www.w3.org/2000/svg" xmlns:xlink="http://www.w3.org/1999/xlink" id="body_1" width="100" height="100">

<g transform="matrix(0.39235228 0 0 0.39235228 -0 20.100208)">
    <path d="M71.826 55.354C 71.826 58.49 72.16499 61.034 72.757996 62.898C 73.51118 64.99624 74.41795 67.036064 75.47099 69.001C 75.895 69.679 76.063995 70.358 76.063995 70.951C 76.063995 71.798996 75.55599 72.645996 74.453995 73.493996L74.453995 73.493996L69.114 77.05399C 68.35 77.562996 67.587 77.81699 66.909 77.81699C 66.062 77.81699 65.214 77.39299 64.366 76.63C 63.223976 75.40257 62.20232 74.06849 61.315 72.645996C 60.467 71.20599 59.619 69.59499 58.687 67.645C 52.075 75.444 43.767 79.342995 33.765 79.342995C 26.645 79.342995 20.965 77.309 16.810999 73.24C 12.657999 69.17 10.537999 63.746 10.537999 56.963997C 10.537999 49.758995 13.080999 43.909996 18.251999 39.502C 23.422998 35.093998 30.288998 32.89 39.020996 32.89C 41.902996 32.89 44.869995 33.144 48.005997 33.568C 51.142 33.992 54.364 34.670002 57.753998 35.433002L57.753998 35.433002L57.753998 29.245003C 57.753998 22.803003 56.398 18.310001 53.769997 15.682003C 51.058 13.054003 46.479996 11.782003 39.952995 11.782003C 36.985996 11.782003 33.933994 12.122004 30.797997 12.885003C 27.661997 13.648003 24.609997 14.580003 21.642998 15.767003C 20.286999 16.360003 19.269999 16.699003 18.675999 16.869003C 18.082998 17.039003 17.658998 17.123003 17.32 17.123003C 16.133 17.123003 15.54 16.275003 15.54 14.495003L15.54 14.495003L15.54 10.342003C 15.54 8.9850025 15.71 7.968003 16.133 7.375003C 16.557 6.781003 17.32 6.1880026 18.507 5.595003C 21.473 4.069003 25.034 2.797003 29.187 1.7800031C 33.341 0.678 37.75 0.17 42.411 0.17C 52.499 0.17 59.873 2.4580002 64.621 7.0360003C 69.283005 11.613001 71.656006 18.564 71.656006 27.889L71.656006 27.889L71.656006 55.354L71.826 55.354zM37.41 68.238C 40.207 68.238 43.09 67.729996 46.141 66.713C 49.193 65.695 51.905 63.829998 54.194 61.287C 55.55 59.677 56.568 57.897 57.076 55.862C 57.585 53.828 57.924 51.37 57.924 48.487L57.924 48.487L57.924 44.927C 55.353275 44.301643 52.749542 43.820892 50.125 43.487C 47.482254 43.15101 44.82101 42.980675 42.157 42.977C 36.477 42.977 32.324 44.079002 29.527 46.368C 26.729 48.657 25.373001 51.878 25.373001 56.117C 25.373001 60.101 26.390001 63.067 28.509 65.102C 30.544 67.222 33.511 68.238 37.409 68.238zM105.479004 77.393C 103.953 77.393 102.936005 77.139 102.258 76.546C 101.579 76.036995 100.986 74.85 100.478004 73.24L100.478004 73.24L80.556 7.714C 80.047 6.019 79.793 4.9170003 79.793 4.3240004C 79.793 2.9670005 80.471 2.2040005 81.826996 2.2040005L81.826996 2.2040005L90.134995 2.2040005C 91.744995 2.2040005 92.84699 2.4580004 93.440994 3.0520005C 94.118996 3.5600004 94.62699 4.7470007 95.135994 6.3580008L95.135994 6.3580008L109.37699 62.474003L122.60099 6.3580017C 123.024994 4.6620016 123.53299 3.5600016 124.21099 3.0520017C 124.88999 2.5430017 126.07599 2.2040017 127.60199 2.2040017L127.60199 2.2040017L134.38399 2.2040017C 135.99399 2.2040017 137.096 2.4580016 137.77399 3.0520017C 138.45299 3.5600019 139.04599 4.7470016 139.38498 6.3580017L139.38498 6.3580017L152.77798 63.152L167.44298 6.3580017C 167.95198 4.6620016 168.54498 3.5600016 169.13898 3.0520017C 169.81697 2.5430017 170.91898 2.2040017 172.44498 2.2040017L172.44498 2.2040017L180.32797 2.2040017C 181.68398 2.2040017 182.44797 2.8820016 182.44797 4.3240013C 182.44797 4.747001 182.36296 5.1710014 182.27797 5.6790013C 182.19296 6.189001 182.02296 6.866001 181.68398 7.799001L181.68398 7.799001L161.25497 73.325005C 160.74698 75.020004 160.15297 76.122 159.47498 76.630005C 158.79698 77.14001 157.69498 77.478004 156.25398 77.478004L156.25398 77.478004L148.96399 77.478004C 147.35399 77.478004 146.25099 77.22401 145.57399 76.630005C 144.89499 76.037 144.30199 74.935005 143.963 73.240005L143.963 73.240005L130.823 18.564007L117.769 73.15501C 117.34499 74.850006 116.837 75.952 116.159 76.545006C 115.479996 77.13901 114.294 77.393005 112.768 77.393005zM214.406 79.683C 209.998 79.683 205.59001 79.173 201.352 78.156C 197.113 77.139 193.807 76.036995 191.60301 74.766C 190.24701 74.003 189.31502 73.155 188.975 72.392C 188.64534 71.644005 188.47246 70.836395 188.46701 70.019L188.46701 70.019L188.46701 65.695C 188.46701 63.915 189.145 63.068 190.417 63.068C 190.93573 63.06971 191.45074 63.15549 191.942 63.322002C 192.451 63.492 193.214 63.83 194.062 64.170006C 197.056 65.48656 200.18163 66.480835 203.386 67.13601C 206.70609 67.810135 210.08516 68.15115 213.473 68.15401C 218.813 68.15401 222.968 67.22101 225.85 65.35601C 228.73201 63.49101 230.25801 60.77901 230.25801 57.30301C 230.25801 54.930008 229.49501 52.98001 227.96802 51.37001C 226.44302 49.75901 223.56102 48.31801 219.40802 46.96201L219.40802 46.96201L207.11603 43.14701C 200.92802 41.19701 196.35002 38.31501 193.55302 34.50101C 190.75603 30.771011 189.31502 26.617012 189.31502 22.209011C 189.31502 18.649012 190.07701 15.513011 191.60301 12.800011C 193.12901 10.08701 195.16301 7.7140107 197.70702 5.8490105C 200.25002 3.8990104 203.13202 2.4590104 206.52301 1.4410105C 209.913 0.424 213.473 0 217.203 0C 219.06801 0 221.018 0.085 222.883 0.34C 224.833 0.593 226.61299 0.93200004 228.39299 1.272C 230.088 1.6949999 231.69899 2.119 233.22398 2.6279998C 234.74998 3.1359997 235.93698 3.6449997 236.78398 4.154C 237.97198 4.832 238.81898 5.5099998 239.32799 6.273C 239.83598 6.9509997 240.09099 7.883 240.09099 9.07L240.09099 9.07L240.09099 13.054C 240.09099 14.834 239.413 15.767 238.14099 15.767C 237.463 15.767 236.361 15.427 234.92 14.75C 230.088 12.546 224.663 11.444 218.644 11.444C 213.813 11.444 209.998 12.207001 207.37 13.817C 204.74199 15.427 203.386 17.887001 203.386 21.362C 203.386 23.734999 204.23401 25.77 205.929 27.38C 207.62401 28.99 210.761 30.601 215.254 32.042L215.254 32.042L227.291 35.857C 233.394 37.807 237.802 40.518997 240.43 43.995C 243.058 47.469997 244.32999 51.454998 244.32999 55.862C 244.32999 59.507 243.56598 62.813 242.12498 65.695C 240.59898 68.576996 238.56499 71.121 235.93698 73.155C 233.30898 75.275 230.17297 76.799995 226.52698 77.902C 222.71298 79.089 218.72897 79.682 214.40598 79.682z" stroke="none" fill="#252F3E" fill-rule="nonzero" />
    <path d="M230.427 120.88C 202.538 141.478 162.01901 152.413 127.179 152.413C 78.353 152.413 34.359 134.358 1.1289978 104.34999C -1.4990022 101.97599 0.8749978 98.75499 4.010998 100.61999C 39.953 121.47299 84.287 134.103 130.146 134.103C 161.086 134.103 195.079 127.660995 226.358 114.437C 231.021 112.31699 235.005 117.489 230.42801 120.879L230.42801 120.879L230.427 120.88zM242.04001 107.656C 238.48001 103.077995 218.475 105.451996 209.40501 106.554C 206.69202 106.893 206.26802 104.519 208.72601 102.739C 224.66301 91.548996 250.85602 94.770996 253.90802 98.501C 256.96002 102.315 253.06001 128.509 238.14102 141.054C 235.85202 143.004 233.64803 141.987 234.66602 139.444C 238.05602 131.052 245.60101 112.148 242.04001 107.656z" stroke="none" fill="#FF9900" fill-rule="nonzero" />
</g>
</svg>