<?xml version="1.0" standalone="no"?>
<!DOCTYPE svg PUBLIC "-//W3C//DTD SVG 1.0//EN" "http://www.w3.org/TR/2001/REC-SVG-20010904/DTD/svg10.dtd">
<svg xmlns="http://www.w3.org/2000/svg" xmlns:xlink="http://www.w3.org/1999/xlink" id="body_1" width="100" height="100">

<g transform="matrix(0.2777099 0 0 0.2777099 14.576716 -0)">
    <path d="M127.399 360.088L23.217 331.166L0 70.766L255.11 70.766L231.868 331.12598L127.399 360.088z" stroke="none" fill="#264DE4" fill-rule="nonzero" />
    <path d="M211.972 314.547L231.832 92.05699L127.556 92.05699L127.556 337.95L211.972 314.547z" stroke="none" fill="#2965F1" fill-rule="nonzero" />
    <path d="M53.223 188.636L56.086 220.573L127.555 220.573L127.555 188.636L53.223 188.636zM47.472 123.995L50.375 155.932L127.555 155.932L127.555 123.99501zM127.555 271.58L127.415 271.61697L91.846 262.01297L89.573 236.54196L57.512997 236.54196L61.986996 286.68796L127.407 304.84796L127.555 304.80795L127.555 271.58z" stroke="none" fill="#EBEBEB" fill-rule="nonzero" />
    <path d="M60.038 0L98.72 0L98.72 16.176L76.214 16.176L76.214 32.352L98.72 32.352L98.72 48.527L60.038 48.527L60.038 0zM106.456 0L145.137 0L145.137 14.066L122.631996 14.066L122.631996 16.879L145.137 16.879L145.137 49.231003L106.45599 49.231003L106.45599 34.46L128.961 34.46L128.961 31.647L106.456 31.647zM152.873 0L191.555 0L191.555 14.066L169.049 14.066L169.049 16.879L191.555 16.879L191.555 49.231003L152.87299 49.231003L152.87299 34.46L175.37898 34.46L175.37898 31.647L152.87299 31.647z" stroke="none" fill="#000000" fill-rule="nonzero" />
    <path d="M201.682 188.636L207.447 123.995L127.44401 123.995L127.44401 155.932L172.447 155.932L169.541 188.636L127.444 188.636L127.444 220.573L166.771 220.573L163.064 261.99298L127.444 271.607L127.444 304.833L192.91699 286.68802L193.39699 281.29202L200.902 197.21202L201.682 188.636z" stroke="none" fill="#FFFFFF" fill-rule="nonzero" />
</g>
</svg>