<?xml version="1.0" standalone="no"?>
<!DOCTYPE svg PUBLIC "-//W3C//DTD SVG 1.0//EN" "http://www.w3.org/TR/2001/REC-SVG-20010904/DTD/svg10.dtd">
<svg xmlns="http://www.w3.org/2000/svg" xmlns:xlink="http://www.w3.org/1999/xlink" id="body_1" width="100" height="100">

<g transform="matrix(0.2777099 0 0 0.2777099 14.576716 -0)">
    <path d="M255.11 70.766L231.868 331.12598L127.397995 360.08798L23.216995 331.166L0 70.766L255.11 70.766z" stroke="none" fill="#E44D26" fill-rule="nonzero" />
    <path d="M127.555 337.95L211.972 314.547L231.832 92.05699L127.556 92.05699L127.555 337.95z" stroke="none" fill="#F16529" fill-rule="nonzero" />
    <path d="M82.375 155.932L127.555 155.932L127.555 123.99501L47.472 123.99501L48.236 132.563L56.086 220.573L127.555 220.573L127.555 188.636L85.294 188.636L82.375 155.932zM89.573 236.542L57.512997 236.542L61.986996 286.68802L127.407 304.84802L127.555 304.808L127.555 271.58L127.415 271.61697L91.846 262.01297L89.573 236.54196z" stroke="none" fill="#EBEBEB" fill-rule="nonzero" />
    <path d="M23.736 0L39.966 0L39.966 16.035L54.812 16.035L54.812 0L71.042 0L71.042 48.558L54.812 48.558L54.812 32.297997L39.967 32.297997L39.967 48.558L23.737 48.558L23.737 0L23.736 0zM92.386 16.103L78.098 16.103L78.098 0L122.912 0L122.912 16.103L108.617004 16.103L108.617004 48.558002L92.38701 48.558002L92.38701 16.103zM130.024 0L146.948 0L157.358 17.062L167.758 0L184.68799 0L184.68799 48.558L168.52399 48.558L168.52399 24.49L157.35799 41.754997L157.07799 41.754997L145.906 24.49L145.906 48.558L130.026 48.558zM192.764 0L209 0L209 32.508L231.824 32.508L231.824 48.558L192.76501 48.558z" stroke="none" fill="#000000" fill-rule="nonzero" />
    <path d="M127.444 220.573L166.771 220.573L163.064 261.99298L127.444 271.607L127.444 304.833L192.91699 286.68802L193.39699 281.29202L200.902 197.21202L201.68199 188.63602L127.44399 188.63602L127.444 220.573zM127.444 155.854L127.444 155.932L204.588 155.932L205.228 148.75401L206.683 132.56302L207.447 123.99502L127.44401 123.99502L127.44401 155.85501z" stroke="none" fill="#FFFFFF" fill-rule="nonzero" />
</g>
</svg>