<?xml version="1.0" standalone="no"?>
<!DOCTYPE svg PUBLIC "-//W3C//DTD SVG 1.0//EN" "http://www.w3.org/TR/2001/REC-SVG-20010904/DTD/svg10.dtd">
<svg xmlns="http://www.w3.org/2000/svg" xmlns:xlink="http://www.w3.org/1999/xlink" id="body_1" width="100" height="100">

<g transform="matrix(0.28953618 0 0 0.28953618 13.12395 -0)">
    <path d="M82.037 267.101C 82.037 267.101 68.839005 274.776 91.43 277.37402C 118.798996 280.49603 132.787 280.04803 162.94699 274.34003C 162.94699 274.34003 170.87698 279.312 181.95099 283.61804C 114.33899 312.59604 28.930984 281.94003 82.03699 267.10104M73.775 229.288C 73.775 229.288 58.972 240.245 81.58 242.584C 110.816 245.6 133.905 245.847 173.856 238.154C 173.856 238.154 179.382 243.75601 188.071 246.819C 106.324 270.723 15.272995 248.704 73.775 229.288" stroke="none" fill="#5382A1" fill-rule="nonzero" />
    <path d="M143.425 165.143C 160.085 184.323 139.048 201.58301 139.048 201.58301C 139.048 201.58301 181.349 179.746 161.922 152.401C 143.778 126.9 129.863 114.229004 205.19 70.542C 205.19 70.542 86.952 100.072 143.425 165.143" stroke="none" fill="#E76F00" fill-rule="nonzero" />
    <path d="M232.847 295.07C 232.847 295.07 242.614 303.118 222.09 309.344C 183.064 321.166 59.65799 324.736 25.375992 309.814C 13.052992 304.454 36.16299 297.014 43.43199 295.453C 51.013992 293.809 55.345993 294.115 55.345993 294.115C 41.64099 284.461 -33.236008 313.072 17.311993 321.266C 155.165 343.62198 268.604 311.199 232.847 295.07M88.384 190.108C 88.384 190.108 25.612003 205.018 66.15401 210.432C 83.27401 212.72401 117.399 212.205 149.185 209.542C 175.163 207.35101 201.248 202.692 201.248 202.692C 201.248 202.692 192.088 206.614 185.461 211.139C 121.716995 227.904 -1.425003 220.10501 34.026 202.957C 64.007 188.464 88.384 190.108 88.384 190.108M200.99 253.05C 265.788 219.379 235.828 187.02 214.916 191.38C 209.79 192.447 207.505 193.371 207.505 193.371C 207.505 193.371 209.408 190.391 213.042 189.101C 254.412 174.556 286.229 231.997 199.68701 254.748C 199.68701 254.748 200.69002 253.852 200.99 253.051" stroke="none" fill="#5382A1" fill-rule="nonzero" />
    <path d="M161.922 0C 161.922 0 197.80899 35.899 127.884995 91.1C 71.813995 135.382 115.09899 160.63 127.86199 189.47699C 95.13199 159.94699 71.11199 133.95099 87.22699 109.75699C 110.879 74.242 176.4 57.023 161.922 0" stroke="none" fill="#E76F00" fill-rule="nonzero" />
    <path d="M94.751 344.294C 156.951 348.275 252.46301 342.084 254.725 312.654C 254.725 312.654 250.377 323.811 203.32101 332.672C 150.23401 342.662 84.75701 341.496 45.922012 335.092C 45.92301 335.092 53.872013 341.672 94.752014 344.294" stroke="none" fill="#5382A1" fill-rule="nonzero" />
</g>
</svg>