<?xml version="1.0" standalone="no"?>
<!DOCTYPE svg PUBLIC "-//W3C//DTD SVG 1.0//EN" "http://www.w3.org/TR/2001/REC-SVG-20010904/DTD/svg10.dtd">
<svg xmlns="http://www.w3.org/2000/svg" xmlns:xlink="http://www.w3.org/1999/xlink" id="body_1" width="100" height="100">

<g transform="matrix(0.390625 0 0 0.390625 0 0)">
    <path d="M0 0L256 0L256 256L0 256L0 0z" stroke="none" fill="#F7DF1E" fill-rule="nonzero" />
    <path d="M67.312 213.932L86.90199 202.076C 90.68199 208.77701 94.119995 214.447 102.36699 214.447C 110.27199 214.447 115.25699 211.35501 115.25699 199.32701L115.25699 199.32701L115.25699 117.529015L139.314 117.529015L139.314 199.66702C 139.314 224.58401 124.70799 235.92603 103.397995 235.92603C 84.15299 235.92603 72.981995 225.95903 67.31099 213.93002M152.381 211.354L171.969 200.013C 177.12599 208.434 183.82799 214.62 195.68399 214.62C 205.65298 214.62 212.00899 209.636 212.00899 202.762C 212.00899 194.51399 205.47899 191.592 194.48099 186.782L194.48099 186.782L188.46799 184.202C 171.111 176.815 159.59799 167.535 159.59799 147.94499C 159.59799 129.90099 173.34499 116.15299 194.82599 116.15299C 210.12 116.15299 221.11798 121.480995 229.02199 135.4L229.02199 135.4L210.29 147.43C 206.165 140.04099 201.69899 137.12 194.825 137.12C 187.77899 137.12 183.311 141.588 183.311 147.43C 183.311 154.64699 187.779 157.56999 198.089 162.038L198.089 162.038L204.103 164.61499C 224.553 173.37999 236.066 182.31499 236.066 202.41899C 236.066 224.073 219.054 235.92899 196.19899 235.92899C 173.85999 235.92899 159.42499 225.27498 152.37999 211.35498" stroke="none" fill="#000000" fill-rule="nonzero" />
</g>
</svg>