<?xml version="1.0" standalone="no"?>
<!DOCTYPE svg PUBLIC "-//W3C//DTD SVG 1.0//EN" "http://www.w3.org/TR/2001/REC-SVG-20010904/DTD/svg10.dtd">
<svg xmlns="http://www.w3.org/2000/svg" xmlns:xlink="http://www.w3.org/1999/xlink" id="body_1" width="100" height="100">

<g transform="matrix(0.39092278 0 0 0.39092278 -0 0.9188618)">
    <path d="M235.624 194.212C 221.70499 193.865 210.918 195.257 201.871 199.084C 199.261 200.127 195.085 200.129 194.737 203.434C 196.13 204.826 196.304 207.08801 197.522 209.001C 199.61101 212.48001 203.26201 217.17801 206.569 219.615C 210.222 222.39801 213.876 225.181 217.703 227.617C 224.489 231.793 232.144 234.228 238.755 238.404C 242.585 240.83801 246.41 243.972 250.237 246.58101C 252.152 247.97101 253.369 250.23502 255.805 251.104L255.805 251.104L255.805 250.58301C 254.58699 249.016 254.239 246.755 253.02199 245.01501C 251.28299 243.27501 249.54199 241.70901 247.80199 239.96901C 242.75699 233.18501 236.49399 227.26901 229.708 222.39801C 224.142 218.57 211.96199 213.35101 209.7 206.91301L209.7 206.91301L209.35199 206.56601C 213.18 206.218 217.702 204.826 221.357 203.78201C 227.273 202.21501 232.666 202.56401 238.75499 200.99802C 241.538 200.30202 244.32298 199.43202 247.10599 198.56201L247.10599 198.56201L247.10599 196.99701C 243.97598 193.865 241.71298 189.69 238.40698 186.73201C 229.53398 179.07501 219.79099 171.59502 209.69998 165.33202C 204.30598 161.85202 197.34698 159.59001 191.60599 156.63301C 189.51898 155.58801 186.038 155.06702 184.82098 153.32701C 181.68898 149.50002 179.94899 144.45502 177.68698 139.93102C 172.64398 130.36102 167.76999 119.749016 163.42097 109.65901C 160.29097 102.87301 158.37598 96.08701 154.54797 89.82501C 136.62798 60.248013 117.142975 42.32801 87.21797 24.755013C 80.77997 21.102013 73.12597 19.536013 64.94797 17.623013C 60.599968 17.448013 56.24997 17.101013 51.899967 16.926012C 49.116966 15.708012 46.331966 12.403012 43.895966 10.837011C 33.981 4.573 8.405 -8.996 1.098 8.924C -3.6 20.232 8.057 31.366 12.058 37.109C 15.018 41.11 18.844 45.633003 20.932 50.157C 22.15 53.113003 22.497 56.247 23.715 59.378002C 26.499 67.031006 29.108 75.558 32.762 82.692C 34.677002 86.345 36.763 90.172005 39.2 93.478004C 40.591 95.39101 43.026 96.262 43.55 99.393005C 41.114 102.87301 40.94 108.093 39.547 112.442C 33.284 132.102 35.72 156.459 44.593002 170.899C 47.376003 175.24701 53.988003 184.819 62.861 181.164C 70.69 178.033 68.95 168.116 71.211 159.417C 71.734 157.32701 71.386 155.93701 72.429 154.54501L72.429 154.54501L72.429 154.89401C 74.866 159.764 77.301 164.46301 79.562004 169.33401C 84.956 177.85802 94.351006 186.73201 102.18001 192.64801C 106.35701 195.77802 109.66201 201.17201 114.88101 203.08601L114.88101 203.08601L114.88101 202.56302L114.53301 202.56302C 113.488014 200.99702 111.92301 200.30202 110.53201 199.08302C 107.40001 195.95302 103.919014 192.12503 101.48401 188.64502C 94.17801 178.90102 87.739006 168.11502 81.99801 156.98001C 79.21501 151.58801 76.77901 145.67201 74.518005 140.279C 73.47301 138.18901 73.47301 135.059 71.733 134.016C 69.123 137.843 65.297005 141.149 63.383003 145.84601C 60.078003 153.32701 59.729004 162.548 58.511 172.117C 57.816 172.292 58.163002 172.117 57.815002 172.46501C 52.248 171.072 50.334003 165.33202 48.245003 160.46C 43.026 148.108 42.156002 128.274 46.681004 114.00801C 47.899002 110.35401 53.118004 98.87201 51.031002 95.39201C 49.987003 92.08601 46.506 90.17201 44.593002 87.56301C 42.331 84.25701 39.895004 80.08301 38.33 76.42801C 34.154003 66.68501 32.066 55.89801 27.543003 46.155006C 25.455004 41.631004 21.802002 36.935005 18.843002 32.759007C 15.539002 28.062006 11.885002 24.755007 9.2750025 19.188007C 8.406002 17.275007 7.187002 14.143007 8.578003 12.055008C 8.927003 10.663008 9.622003 10.142008 11.015003 9.794008C 13.276003 7.8790083 19.714005 10.315008 21.975002 11.359009C 28.413002 13.967009 33.805 16.405008 39.200005 20.05801C 41.635006 21.79801 44.244003 25.10401 47.376003 25.97401L47.376003 25.97401L51.030003 25.97401C 56.598003 27.19101 62.86 26.32201 68.08 27.88701C 77.302 30.844011 85.651 35.19401 93.133 39.89201C 115.926 54.33201 134.714 74.862015 147.416 99.393005C 149.504 103.393005 150.372 107.049 152.286 111.22301C 155.941 119.74901 160.46399 128.44801 164.11699 136.79901C 167.76999 144.975 171.24998 153.32701 176.469 160.113C 179.07999 163.765 189.51799 165.68001 194.21599 167.59401C 197.69598 169.15901 203.08899 170.552 206.221 172.46501C 212.135 176.117 218.051 180.29501 223.61899 184.29501C 226.40298 186.38301 235.10098 190.73302 235.624 194.212z" stroke="none" fill="#00546B" fill-rule="nonzero" />
    <path d="M58.162 43.022C 55.204 43.022 53.116997 43.371998 51.029 43.892998L51.029 43.892998L51.029 44.240997L51.377 44.240997C 52.77 47.024998 55.204 48.938995 56.944 51.373997C 58.337 54.156998 59.554 56.941998 60.946 59.725998L60.946 59.725998L61.293 59.378C 63.731 57.637997 64.948 54.853996 64.948 50.677998C 63.903 49.461 63.73 48.242996 62.859997 47.024998C 61.815998 45.283997 59.553997 44.414997 58.161995 43.022L58.161995 43.022L58.162 43.022z" stroke="none" fill="#00546B" fill-rule="nonzero" />
</g>
</svg>