<?xml version="1.0" standalone="no"?>
<!DOCTYPE svg PUBLIC "-//W3C//DTD SVG 1.0//EN" "http://www.w3.org/TR/2001/REC-SVG-20010904/DTD/svg10.dtd">
<svg xmlns="http://www.w3.org/2000/svg" xmlns:xlink="http://www.w3.org/1999/xlink" id="body_1" width="100" height="100">

<defs>
    <radialGradient cx="33.333336%" cy="0%" r="141.42134%" fx="33.333336%" gradientUnits="objectBoundingBox" id="1">
        <stop offset="0%" stop-color="#20C6B7" stop-opacity="1"/>
        <stop offset="100%" stop-color="#4D9ABF" stop-opacity="1"/>
    </radialGradient>
<mask id="274">
<path  transform="matrix(1 0 0 1 0 0)"   d="M384 -128C 384 -60.13062 357.01025 5.0284367 309.01935 53.019337C 261.02844 101.01024 195.86938 128 128 128C 60.13062 128 -5.0284367 101.01024 -53.019337 53.019337C -101.01024 5.0284367 -128 -60.13062 -128 -128C -128 -195.86938 -101.01024 -261.02844 -53.019337 -309.01935C -5.0284367 -357.01025 60.13062 -384 128 -384C 195.86938 -384 261.02844 -357.01025 309.01935 -309.01935C 357.01025 -261.02844 384 -195.86938 384 -128z" fill="white"/>
</mask>
</defs>

<g transform="matrix(0.390625 0 0 0.390625 0 0)">
    <path d="M185.532 88.839L185.438 88.798996C 185.38075 88.781975 185.32811 88.752235 185.284 88.712C 185.12863 88.54525 185.05954 88.315796 185.097 88.090996L185.097 88.090996L190.264 56.537994L214.49301 80.746994L189.29501 91.45599C 189.22516 91.48412 189.1503 91.497734 189.07501 91.495995L189.07501 91.495995L188.97401 91.495995C 188.9247 91.46383 188.87967 91.42552 188.84001 91.381996C 187.90211 90.33918 186.7809 89.47725 185.53201 88.839L185.53201 88.839L185.532 88.839zM220.676 86.916L246.582 112.794C 251.962 118.174995 254.657 120.859 255.639 123.971C 255.78601 124.431 255.906 124.892 256 125.366L256 125.366L194.087 99.173996C 194.05383 99.16029 194.02048 99.14696 193.987 99.133995C 193.739 99.034 193.452 98.92 193.452 98.66699C 193.452 98.412994 193.746 98.29299 193.993 98.19299L193.993 98.19299L194.073 98.159zM254.944 133.672C 253.607 136.18199 251 138.786 246.589 143.199L246.589 143.199L217.38 172.369L179.603 164.511L179.403 164.47101C 179.068 164.417 178.714 164.35701 178.714 164.057C 178.42343 160.90944 176.83759 158.02428 174.336 156.09201C 174.18199 155.938 174.222 155.69801 174.269 155.477C 174.269 155.444 174.269 155.41101 174.283 155.384L174.283 155.384L181.388 111.813L181.414 111.666C 181.454 111.332 181.514 110.945 181.815 110.945C 184.89008 110.56344 187.68346 108.963936 189.569 106.505C 189.629 106.437996 189.669 106.365 189.749 106.325C 189.963 106.225 190.217 106.325 190.43799 106.418L190.43799 106.418L254.93799 133.672zM210.664 179.079L162.633 227.05699L170.853 176.582L170.867 176.515C 170.8734 176.44942 170.8868 176.38472 170.907 176.322C 170.974 176.162 171.147 176.095 171.315 176.028L171.315 176.028L171.395 175.994C 173.195 175.227 174.787 174.044 176.041 172.543C 176.201 172.356 176.395 172.175 176.642 172.142C 176.70624 172.13147 176.77176 172.13147 176.836 172.142L176.836 172.142L210.656 179.086zM152.466 237.21199L147.052 242.62L87.198 156.212C 87.17631 156.18022 87.15396 156.14888 87.131 156.11801C 87.037994 155.99101 86.937 155.865 86.958 155.71802C 86.964 155.61102 87.031 155.51802 87.105 155.43802L87.105 155.43802L87.171005 155.35002C 87.351006 155.08302 87.506004 154.81602 87.673004 154.53001L87.673004 154.53001L87.80601 154.29602L87.826004 154.27602C 87.920006 154.11601 88.006004 153.96202 88.16701 153.87502C 88.30701 153.80801 88.50201 153.83502 88.65501 153.86801L88.65501 153.86801L154.966 167.52802C 155.15201 167.55702 155.326 167.63301 155.474 167.74802C 155.561 167.83502 155.581 167.92801 155.601 168.03601C 156.53976 171.58095 159.08171 174.48323 162.472 175.88101C 162.659 175.97401 162.579 176.18102 162.492 176.40102C 162.44882 176.49747 162.41531 176.59796 162.392 176.70102C 161.556 181.77602 154.392 225.42702 152.466 237.21101zM141.157 248.50198C 137.16699 252.44798 134.814 254.53699 132.15399 255.37898C 129.53117 256.2073 126.71681 256.2073 124.093994 255.37898C 120.979 254.38998 118.284 251.70699 112.90399 246.32498L112.90399 246.32498L52.79599 186.28299L68.49599 161.95999C 68.56251 161.83783 68.653786 161.7309 68.763985 161.646C 68.930984 161.526 69.17198 161.58 69.37199 161.646C 72.975685 162.73203 76.84432 162.53625 80.319984 161.092C 80.499985 161.026 80.680984 160.97899 80.82198 161.106C 80.89198 161.17 80.95499 161.241 81.00898 161.319L81.00898 161.319L141.15698 248.509zM47.001 180.49399L33.211998 166.721L60.441998 155.11699C 60.511723 155.08652 60.58691 155.07053 60.663 155.06999C 60.89 155.06999 61.024 155.297 61.143997 155.504C 61.417995 155.924 61.707996 156.334 62.013996 156.733L62.013996 156.733L62.099995 156.839C 62.179996 156.953 62.126995 157.06601 62.046993 157.173L62.046993 157.173L47.006992 180.494zM27.11 160.625L9.665 143.199C 6.697 140.235 4.545 138.085 3.0479999 136.23601L3.0479999 136.23601L56.091 147.22601L56.291 147.25902C 56.619 147.31201 56.981 147.37202 56.981 147.67902C 56.981 148.01302 56.586 148.16702 56.251 148.29301L56.251 148.29301L56.098 148.36002zM0 127.275C 0.060679436 126.15271 0.26294804 125.04258 0.602 123.971C 1.5910001 120.859 4.278 118.175 9.665 112.794L9.665 112.794L31.988998 90.494C 42.384766 105.56543 52.45703 120.10742 62.908997 135.141C 63.088997 135.38101 63.288998 135.64801 63.082996 135.848C 62.106995 136.923 61.130997 138.098 60.442997 139.37401C 60.367996 139.537 60.253 139.68001 60.107998 139.787C 60.020996 139.841 59.927998 139.821 59.828 139.80101L59.828 139.80101L59.814 139.80101L0 127.269zM37.965 84.525L67.982 54.541C 70.802 55.776 81.069 60.109 90.252 63.981C 97.204 66.92 103.54 69.590996 105.532 70.458C 105.731995 70.538 105.912994 70.618004 106 70.818C 106.053 70.938 106.027 71.092 106 71.219C 105.03493 75.61649 106.349075 80.204346 109.496 83.424C 109.696 83.624 109.496 83.911 109.322 84.158005L109.322 84.158005L109.228 84.298004L78.75 131.455C 78.67 131.589 78.596 131.702 78.462 131.789C 78.301994 131.889 78.075 131.842 77.887 131.796C 76.70164 131.48582 75.48315 131.31996 74.258 131.302C 73.162 131.302 71.972 131.502 70.769005 131.722L70.769005 131.722L70.762 131.722C 70.629 131.742 70.508 131.769 70.402 131.689C 70.28385 131.59277 70.18218 131.47794 70.101 131.349zM74.045 48.485L112.905 9.667999C 118.284996 4.2929993 120.979 1.6029997 124.093 0.62099934C 126.71613 -0.20753193 129.53087 -0.20753193 132.154 0.62099934C 135.26901 1.6029993 137.962 4.2929993 143.343 9.667999L143.343 9.667999L151.765 18.081L124.127 60.836998C 124.05854 60.961304 123.96528 61.07022 123.853 61.156998C 123.686 61.270996 123.451996 61.224 123.251 61.156998C 118.82748 59.816093 114.02731 60.74037 110.418 63.628C 110.238 63.815 109.97 63.708 109.743 63.607998C 106.132996 62.038998 78.061 50.187996 74.04399 48.486zM157.633 23.943L183.153 49.433L177.003 87.477L177.003 87.576996C 176.99794 87.6638 176.98007 87.7494 176.95001 87.83099C 176.88301 87.964 176.74901 87.991 176.615 88.03099C 175.30069 88.42888 174.06273 89.04515 172.953 89.85399C 172.90521 89.88779 172.86038 89.92559 172.819 89.96699C 172.745 90.04699 172.672 90.12099 172.551 90.13399C 172.4532 90.13686 172.35576 90.12091 172.26399 90.08699L172.26399 90.08699L133.37698 73.58299L133.30399 73.548996C 133.05598 73.449 132.76198 73.328995 132.76198 73.075C 132.53333 70.91011 131.82555 68.82328 130.68997 66.965996C 130.50298 66.659 130.29597 66.339 130.45598 66.024994zM131.352 81.4L167.806 96.823C 168.006 96.916 168.227 97.003 168.314 97.21C 168.34868 97.33429 168.34868 97.4657 168.314 97.59C 168.207 98.125 168.114 98.731995 168.114 99.347L168.114 99.347L168.114 100.368004C 168.114 100.622 167.853 100.728004 167.612 100.828L167.612 100.828L167.539 100.855C 161.764 103.319 86.463005 135.393 86.349 135.393C 86.236 135.393 86.115 135.393 86.002 135.28C 85.802 135.08 86.002 134.8 86.182 134.545C 86.21406 134.50117 86.245384 134.45685 86.276 134.412L86.276 134.412L116.233 88.077L116.286 87.997C 116.46001 87.716 116.661 87.402 116.982 87.402L116.982 87.402L117.282005 87.449C 117.964005 87.542 118.566 87.629 119.174 87.629C 123.719 87.629 127.93 85.419 130.47 81.64C 130.53 81.54 130.607 81.45 130.697 81.373C 130.877 81.24 131.145 81.307 131.352 81.4zM89.604004 142.724L171.68301 107.759C 171.68301 107.759 171.80301 107.759 171.917 107.873C 172.36401 108.32 172.74501 108.62 173.113 108.901L173.113 108.901L173.293 109.014C 173.461 109.108 173.628 109.214 173.641 109.388C 173.641 109.455 173.641 109.495 173.628 109.555L173.628 109.555L166.59601 152.699L166.56902 152.87201C 166.52301 153.20601 166.47601 153.587 166.16202 153.587C 162.35747 153.84279 158.9239 155.9586 156.98502 159.242L156.98502 159.242L156.95102 159.295C 156.85802 159.449 156.77103 159.595 156.61702 159.675C 156.47702 159.743 156.29701 159.716 156.14902 159.683L156.14902 159.683L90.694016 146.196C 90.627014 146.183 89.67802 142.731 89.60402 142.724z" stroke="none" mask="url(#274)" fill="url(#1)"  />
</g>
</svg>