<?xml version="1.0" standalone="no"?>
<!DOCTYPE svg PUBLIC "-//W3C//DTD SVG 1.0//EN" "http://www.w3.org/TR/2001/REC-SVG-20010904/DTD/svg10.dtd">
<svg xmlns="http://www.w3.org/2000/svg" xmlns:xlink="http://www.w3.org/1999/xlink" id="body_1" width="100" height="100">

<g transform="matrix(0.38014573 0 0 0.38014573 1.4200361 -0)">
	<g>
        <path d="M23.573 233.592L45.987 255.966L45.985 255.965L0 257.56L23.573 233.592zM254.58 137.09C 246.037 203.703 185.10501 250.76599 118.503006 242.213C 51.889 233.668 4.826 172.737 13.37 106.129C 21.919 39.518 82.838 -7.55 149.457 1.004C 216.067 9.545 263.141 70.480995 254.581 137.08699" stroke="none" fill="#F15A24" fill-rule="nonzero" />
        <path d="M164.982 87.041C 172.972 95.535 165.086 115.618 165.086 115.618C 165.086 115.618 157.29199 144.012 112.66499 180.831L112.66499 180.831L104.33499 172.655L160.98499 114.755L162.07999 113.278C 163.58699 110.822 164.83499 86.876 164.98198 87.041" stroke="none" fill="#999999" fill-rule="nonzero" />
        <path d="M164.982 87.041C 172.972 95.535 165.086 115.618 165.086 115.618C 165.086 115.618 157.29199 144.012 112.66499 180.831L112.66499 180.831L104.33499 172.655L160.98499 114.755L162.07999 113.278C 163.58699 110.822 164.83499 86.876 164.98198 87.041L164.98198 87.041L164.982 87.041z" stroke="#FFFFFF" stroke-width="1.918" stroke-linecap="square" fill="none" />
        <path d="M92.1 160.618L164.863 86.83199C 168.556 91.217995 169.34201 95.94199 168.27 102.674995C 167.548 107.337 159.49501 116.655 159.49501 116.655L159.49501 116.655L104.33501 172.655" stroke="none" fill="#666666" fill-rule="nonzero" />
        <path d="M92.1 160.618L164.863 86.83199C 168.556 91.217995 169.34201 95.94199 168.27 102.674995C 167.548 107.337 159.49501 116.655 159.49501 116.655L159.49501 116.655L104.33501 172.655" stroke="#FFFFFF" stroke-width="1.201" stroke-linecap="square" fill="none" />
        <path d="M164.982 87.093L92.099 160.62L92.246 160.47699L92.219 160.48698L74.136 142.66998C 111.844 95.764984 136.225 87.01998 136.225 87.01998C 136.225 87.01998 152.097 80.82398 163.42001 85.63198C 164.29001 86.097984 164.66801 86.36598 164.98001 87.09498" stroke="none" fill="#FF931E" fill-rule="nonzero" />
        <path d="M164.982 87.093L92.099 160.62L92.246 160.47699L92.219 160.48698L74.136 142.66998C 111.844 95.764984 136.225 87.01998 136.225 87.01998C 136.225 87.01998 152.097 80.82398 163.42001 85.63198C 164.29001 86.097984 164.66801 86.36598 164.98001 87.09498L164.98001 87.09498L164.982 87.093z" stroke="#FFFFFF" stroke-width="1.918" stroke-linecap="square" fill="none" />
        <path d="M112.665 180.83C 95.277 195.15 73.024 217.645 42.776 233.335L42.776 233.335L49.504 262.09802L20.988 234.01102L92.098 160.61801" stroke="none" fill="#999999" fill-rule="nonzero" />
        <path d="M112.665 180.83C 95.277 195.15 73.024 217.645 42.776 233.335L42.776 233.335L49.504 262.09802L20.988 234.01102L92.098 160.61801" stroke="#FFFFFF" stroke-width="1.918" stroke-linecap="square" fill="none" />
        <path d="M51.478 169.345L74.232 142.593L74.625 142.91L74.623 142.91L92.288 160.50601L51.478 169.345z" stroke="none" fill="#F15A24" fill-rule="nonzero" />
        <path d="M51.478 169.345L74.232 142.593L74.625 142.91L74.623 142.91L92.288 160.50601L51.478 169.345z" stroke="#FFFFFF" stroke-width="1.918" stroke-linecap="square" fill="none" />
        <path d="M158.024 65.756C 156.291 81.395996 167.552 95.476 183.192 97.22099C 198.82 98.95699 212.913 87.687996 214.657 72.05299C 216.395 56.41799 205.117 42.322994 189.483 40.583992C 173.841 38.85699 159.759 50.11199 158.024 65.756" stroke="none" fill="#999999" fill-rule="nonzero" />
        <path d="M158.024 65.756C 156.291 81.395996 167.552 95.476 183.192 97.22099C 198.82 98.95699 212.913 87.687996 214.657 72.05299C 216.395 56.41799 205.117 42.322994 189.483 40.583992C 173.841 38.85699 159.759 50.11199 158.024 65.756z" stroke="#FFFFFF" stroke-width="1.918" stroke-linecap="square" fill="none" />
        <path d="M210.565 84.648C 215.821 76.968 215.549 65.481 214.494 62.078003C 213.199 57.910004 210.30301 51.132004 205.251 47.61L205.251 47.61L178.537 72.216C 178.537 72.216 199.067 94.274 199.602 94.34801C 199.824 94.37301 205.772 91.64901 210.565 84.64801" stroke="none" fill="#666666" fill-rule="nonzero" />
        <path d="M210.565 84.648C 215.821 76.968 215.549 65.481 214.494 62.078003C 213.199 57.910004 210.30301 51.132004 205.251 47.61L205.251 47.61L178.537 72.216C 178.537 72.216 199.067 94.274 199.602 94.34801C 199.824 94.37301 205.772 91.64901 210.565 84.64801L210.565 84.64801L210.565 84.648zM205.175 65.372C 205.175 65.372 207.744 71.68 204.485 76.587006z" stroke="#FFFFFF" stroke-width="1.918" stroke-linecap="square" fill="none" />
        <path d="M104.964 172.666L75.481995 177.912L93.27799 159.422" stroke="none" fill="#666666" fill-rule="nonzero" />
        <path d="M104.964 172.666L75.481995 177.912L93.27799 159.422zM75.30799 143.039L112.787994 178.313" stroke="#FFFFFF" stroke-width="1.918" stroke-linecap="square" fill="none" />
	</g>
</g>
</svg>