<?xml version="1.0" standalone="no"?>
<!DOCTYPE svg PUBLIC "-//W3C//DTD SVG 1.0//EN" "http://www.w3.org/TR/2001/REC-SVG-20010904/DTD/svg10.dtd">
<svg xmlns="http://www.w3.org/2000/svg" xmlns:xlink="http://www.w3.org/1999/xlink" id="body_1" width="100" height="100">

<g transform="matrix(0.39062044 0 0 0.39062044 -0 0.09433219)">
    <path d="M38.944 35.879C 89.524 -13.119999 170.398 -11.802998 219.397 39.04C 224.929 31.664001 229.671 23.498001 233.09601 15.068001C 249.16602 64.067 258.913 105.163 255.22401 137.038C 253.38002 163.90799 242.84302 189.72499 225.45601 210.273C 180.14601 264.014 99.53401 270.863 45.793015 225.553L45.793015 225.553L44.765015 224.638L44.710014 224.602C 44.037804 224.14008 43.42224 223.60071 42.876015 222.99501L42.876015 222.99501L42.732014 222.83101L41.052013 221.33801C 39.412014 219.93301 37.773014 218.52802 36.319016 216.93802L36.319016 216.93802L35.783016 216.33202C -13.216984 165.75201 -11.6359825 84.87802 38.943016 35.879013L38.943016 35.879013L38.944 35.879zM57.91 207.376C 53.168 203.688 46.319 204.214 42.63 208.95601C 39.388 213.126 39.404 218.925 42.679 222.77101L42.679 222.77101L42.731 222.83101L44.764 224.63802L44.964 224.77402C 49.568 227.80202 55.764 227.17601 59.297 222.89601L59.297 222.89601L59.491 222.65501C 63.179 217.91301 62.389 211.06401 57.911 207.37502zM231.78 28.239C 218.607 55.9 185.94 76.975 157.753 83.561C 131.14601 89.882996 107.963005 84.615 83.464005 94.098C 27.616005 115.437 28.670006 181.82199 59.228004 196.838L59.228004 196.838L61.072006 197.892C 61.072006 197.892 83.146 193.50299 104.97401 187.707L104.97401 187.707L106.84401 187.207C 115.56201 184.857 124.13901 182.297 131.14601 179.715C 167.50002 166.28 207.54301 133.087 220.71402 94.625C 213.86502 134.66699 179.35501 173.392 144.84402 191.043C 126.40402 200.526 112.17902 202.633 81.884026 213.171C 79.65646 213.96686 77.4598 214.84572 75.29803 215.806L75.29803 215.806L76.40603 215.656L77.14203 215.561L77.87503 215.46901C 84.56503 214.639 90.57703 214.225 90.57703 214.225C 133.51703 212.117 200.95703 226.343 232.30603 184.457C 264.44504 141.78 246.53104 72.76 231.77904 28.238998z" stroke="none" fill="#6DB33F" fill-rule="nonzero" />
    <path d="M57.911 207.376C 62.39 211.06401 63.18 217.91301 59.491 222.65501C 55.804 227.39702 48.954002 227.92401 44.212 224.23502C 39.471 220.54701 38.944 213.69801 42.632 208.95601C 46.32 204.214 53.169 203.688 57.912 207.376L57.912 207.376L57.911 207.376zM231.78 28.239C 246.532 72.76 264.44598 141.78 232.30699 184.457C 200.95699 226.343 133.51799 212.117 90.57799 214.225C 90.57799 214.225 84.56599 214.64 77.87599 215.46901L77.87599 215.46901L77.14299 215.561C 76.53099 215.639 75.91499 215.72101 75.29899 215.806C 75.29899 215.806 78.19699 214.488 81.88499 213.171C 112.179985 202.634 126.40498 200.526 144.84499 191.043C 179.35599 173.393 213.866 134.66699 220.715 94.625C 207.54399 133.087 167.50099 166.28 131.147 179.715C 106.121 188.935 61.073006 197.892 61.073006 197.892L61.073006 197.892L59.229004 196.838C 28.671003 181.82199 27.617004 115.437 83.465004 94.098C 107.965004 84.615 131.147 89.882996 157.755 83.561C 185.942 76.975 218.608 55.900997 231.78 28.238998z" stroke="none" fill="#FFFFFF" fill-rule="nonzero" />
</g>
</svg>